<?xml version="1.0" standalone="no"?>
<!DOCTYPE svg PUBLIC "-//W3C//DTD SVG 20010904//EN"
 "http://www.w3.org/TR/2001/REC-SVG-20010904/DTD/svg10.dtd">
<svg version="1.0" xmlns="http://www.w3.org/2000/svg"
 width="1184.000000pt" height="548.000000pt" viewBox="0 0 1184.000000 548.000000"
 preserveAspectRatio="xMidYMid meet">

<g transform="translate(0.000000,548.000000) scale(0.100000,-0.100000)"
fill="#000000" stroke="none">
<path d="M6821 5099 c-6 -13 -106 -265 -222 -559 -116 -294 -214 -539 -218
-543 -5 -5 -1201 24 -2659 63 -1458 39 -2682 70 -2720 68 -63 -3 151 -55 2445
-593 1383 -324 2515 -591 2517 -592 2 -2 -41 -115 -94 -251 l-98 -247 -58 -3
c-33 -1 -963 22 -2069 52 l-2010 54 -640 -39 c-352 -21 -658 -38 -679 -39 -22
0 -37 -2 -34 -5 3 -3 311 -23 684 -45 618 -37 860 -45 2702 -94 1113 -30 2026
-56 2028 -59 2 -2 -63 -174 -145 -383 l-149 -379 -22 -178 c-12 -98 -20 -180
-17 -183 2 -3 48 66 102 153 92 149 106 179 255 556 87 219 162 402 166 407 5
4 893 -17 1974 -46 1081 -30 2010 -53 2066 -51 l101 2 -1911 448 c-1051 247
-1912 450 -1914 451 -3 4 287 739 296 748 9 8 951 -18 960 -27 4 -3 106 -167
227 -363 122 -196 225 -357 231 -357 5 0 151 155 324 345 l314 345 50 3 c28 2
204 -1 391 -7 l340 -10 255 35 c140 19 259 36 264 37 5 2 -112 24 -260 50
-266 47 -273 48 -549 54 -154 3 -290 9 -303 12 -21 6 13 47 349 416 205 226
375 411 378 412 3 2 424 -928 935 -2065 l928 -2067 147 -217 c81 -119 149
-220 153 -223 3 -4 -27 108 -68 248 l-74 254 -982 2186 c-541 1203 -986 2187
-990 2187 -3 0 -233 -249 -509 -552 -276 -304 -507 -558 -513 -565 -8 -9 -122
-8 -476 2 -256 8 -466 14 -467 14 0 1 -160 259 -354 574 -194 314 -356 576
-360 581 -5 5 -13 -2 -18 -15z m293 -751 c124 -201 226 -372 226 -378 0 -9
-17 -11 -62 -6 -35 3 -208 8 -385 12 -220 4 -323 10 -323 17 0 6 60 164 134
352 74 187 140 353 146 369 9 25 13 27 24 15 8 -8 116 -179 240 -381z m-2591
-477 c977 -26 1780 -51 1783 -54 3 -3 -57 -165 -134 -359 -119 -300 -143 -353
-158 -350 -29 5 -3428 802 -3439 806 -22 9 240 3 1948 -43z m3651 -99 l159 -7
-192 -210 c-105 -115 -194 -211 -199 -213 -8 -2 -272 420 -272 435 0 9 200 7
504 -5z m-900 -1134 c616 -145 1111 -265 1102 -266 -17 -4 -2419 58 -2423 62
-7 6 182 466 191 466 6 0 515 -118 1130 -262z"/>
</g>
</svg>
